<?xml version="1.0" standalone="no"?><!DOCTYPE svg PUBLIC "-//W3C//DTD SVG 1.1//EN" "http://www.w3.org/Graphics/SVG/1.1/DTD/svg11.dtd"><svg class="icon" width="200px" height="200.00px" viewBox="0 0 1024 1024" version="1.1" xmlns="http://www.w3.org/2000/svg"><path fill="#555555" d="M718.08 527.36V576c0 8.32-3.84 12.16-11.52 12.16H320c-7.68 0-11.52-3.84-11.52-12.16v-48.64c0-8.32 3.84-12.16 11.52-12.16h384c7.68 0 11.52 3.84 11.52 12.16M717.44 666.88v46.72c0 8.32-3.84 12.16-11.52 12.16H320c-7.68 0-11.52-3.84-11.52-12.16v-46.72c0-8.32 3.84-12.16 11.52-12.16h384c7.68 0 11.52 3.84 11.52 12.16M841.6 188.16h-123.52v-53.12a12.16 12.16 0 0 0-14.08-12.16h-44.8a10.88 10.88 0 0 0-11.52 10.88v54.4H376.32v-53.12a12.16 12.16 0 0 0-11.52-12.16H320a11.52 11.52 0 0 0-11.52 10.88v54.4H182.4a58.88 58.88 0 0 0-58.88 58.88v565.12a58.88 58.88 0 0 0 58.88 58.88h659.2a58.88 58.88 0 0 0 58.88-58.88V247.04a58.88 58.88 0 0 0-58.88-58.88M305.92 256v38.4a10.88 10.88 0 0 0 10.24 11.52h48.64a11.52 11.52 0 0 0 11.52-11.52V256h270.08v38.4a10.88 10.88 0 0 0 10.24 11.52H704a11.52 11.52 0 0 0 11.52-11.52V256H832v108.8H192V256zM192 435.2h640v365.44H192z" /></svg>