<?xml version="1.0" standalone="no"?><!DOCTYPE svg PUBLIC "-//W3C//DTD SVG 1.1//EN" "http://www.w3.org/Graphics/SVG/1.1/DTD/svg11.dtd"><svg class="icon" width="200px" height="200.00px" viewBox="0 0 1024 1024" version="1.1" xmlns="http://www.w3.org/2000/svg"><path fill="#555555" d="M743.9 635.8l7.8 65 0.2 2.2-2 16.1c-3.4 9.8-10.5 17.8-20.7 21.4-17.9 6.6-37.5-3.1-43.9-21.9l-0.6-3.4c-3-8.8-4.3-28.7-4.3-28.7l-7.1-81.2 136.9-150.1L610.4 412 510.1 231.6v3l-97.6 178.6-195.8 44.5 132.9 146.7L321.8 819l188.4-92.7L691.3 809v-0.7l77.6 36.3 6.6 56c-6.8 12.9-18.4 22.3-31.9 26.5L510.1 812.6 275.3 927.4c-12.6-3.4-23.9-11.5-31.5-22.6l32.4-269L96 435.3c0.9-13.4 6.5-25.8 15.1-35.3l254.4-50.9L496.3 102c9-2.4 18.6-2.2 27.6 0.3l130.5 247 253.4 50.9c9 9.5 14.5 22.4 15.4 36L743.9 635.8z m0 0" /></svg>