<?xml version="1.0" standalone="no"?><!DOCTYPE svg PUBLIC "-//W3C//DTD SVG 1.1//EN" "http://www.w3.org/Graphics/SVG/1.1/DTD/svg11.dtd"><svg class="icon" width="200px" height="200.00px" viewBox="0 0 1024 1024" version="1.1" xmlns="http://www.w3.org/2000/svg"><path fill="#555555" d="M882.501818 72.378182H142.894545a139.636364 139.636364 0 0 0-139.636363 139.636363v612.072728a139.636364 139.636364 0 0 0 139.636363 139.636363h739.607273a139.636364 139.636364 0 0 0 139.636364-139.636363V212.712727a139.636364 139.636364 0 0 0-139.636364-140.334545z m63.767273 752.407273a64 64 0 0 1-63.767273 63.767272H142.894545a64.465455 64.465455 0 0 1-63.767272-63.767272v-122.647273a268.567273 268.567273 0 0 1 218.530909 53.76c9.076364 7.447273 23.272727 19.781818 43.054545 37.236363a38.167273 38.167273 0 0 0 61.44-15.592727l16.756364-46.545454a350.72 350.72 0 0 1 475.229091-192.930909 149.178182 149.178182 0 0 1 52.130909 39.330909z m0-345.134546A425.658182 425.658182 0 0 0 349.090909 699.345455a343.970909 343.970909 0 0 0-219.229091-78.661819 375.389091 375.389091 0 0 0-50.967273 3.723637V212.712727A64 64 0 0 1 142.894545 148.945455h739.607273a63.534545 63.534545 0 0 1 63.767273 63.767272zM283.229091 250.88a114.734545 114.734545 0 1 0 114.734545 114.734545 114.734545 114.734545 0 0 0-114.734545-114.734545z m0 153.134545a38.4 38.4 0 1 1 38.167273-38.4 38.167273 38.167273 0 0 1-38.167273 38.4z" /></svg>